<svg xmlns="http://www.w3.org/2000/svg" width="32" height="32" class="icon" viewBox="0 0 1024 1024"><path d="M705.408 761.6c32.427 0 54.784 0 72.107-1.45 17.024-1.366 26.368-3.926 33.28-7.467 15.36-7.808 27.904-20.352 35.754-35.755 3.499-6.912 6.059-16.256 7.467-33.237 1.408-17.366 1.45-39.723 1.45-72.107V412.459c0-32.427-.042-54.784-1.45-72.107-1.408-17.024-3.968-26.368-7.467-33.28a81.83 81.83 0 0 0-35.754-35.755c-6.912-3.498-16.256-6.058-33.28-7.466-17.323-1.408-39.68-1.451-72.107-1.451H318.592c-32.384 0-54.741 0-72.107 1.45-17.024 1.409-26.41 3.969-33.28 7.467a81.8 81.8 0 0 0-35.754 35.755c-3.499 6.912-6.102 16.256-7.467 33.28-1.45 17.323-1.45 39.68-1.45 72.107v199.125c0 32.384 0 54.741 1.45 72.107 1.365 16.981 3.968 26.325 7.467 33.28 7.85 15.36 20.352 27.904 35.712 35.712 6.912 3.541 16.298 6.101 33.28 7.466 17.408 1.408 39.765 1.451 72.106 1.451zm-386.816 64c-31.317 0-56.747 0-77.355-1.664-20.906-1.707-39.68-5.376-57.088-14.25a145.84 145.84 0 0 1-63.744-63.702c-8.874-17.408-12.501-36.139-14.25-57.088-1.664-20.565-1.622-45.995-1.622-77.312V412.459c0-31.36-.042-56.747 1.622-77.355 1.706-20.907 5.376-39.68 14.25-57.13a145.84 145.84 0 0 1 63.744-63.702c17.408-8.875 36.139-12.501 57.088-14.208 20.608-1.707 46.038-1.664 77.355-1.664h386.816c31.36 0 56.747 0 77.355 1.707 20.906 1.706 39.68 5.29 57.13 14.165a145.9 145.9 0 0 1 63.702 63.701c8.874 17.451 12.501 36.182 14.208 57.174 1.706 20.522 1.664 45.952 1.664 77.312v199.125c0 31.317 0 56.747-1.707 77.312-1.707 20.907-5.29 39.68-14.165 57.088a145.88 145.88 0 0 1-63.702 63.701c-17.45 8.875-36.181 12.544-57.173 14.251-20.565 1.707-45.952 1.707-77.312 1.707H318.592z"/></svg>