<svg xmlns="http://www.w3.org/2000/svg" width="20" height="20" class="icon" viewBox="0 0 20 20"><path d="M10.625 6.254a.625.625 0 0 1 .625-.625h6.25c.805 0 1.458.653 1.458 1.458v5.834a1.46 1.46 0 0 1-1.458 1.458h-1.667a.625.625 0 0 1 0-1.25H17.5a.21.21 0 0 0 .208-.208V7.087a.21.21 0 0 0-.208-.208h-6.25a.625.625 0 0 1-.625-.625m-9.583.833c0-.805.653-1.458 1.458-1.458h2.083a.625.625 0 0 1 0 1.25H2.5a.21.21 0 0 0-.208.208v5.834c0 .115.093.208.208.208h6.25a.625.625 0 0 1 0 1.25H2.5a1.46 1.46 0 0 1-1.458-1.458zm4.475-4.705a.625.625 0 0 1 .856.222l8.333 14.167a.625.625 0 0 1-1.078.633L5.295 3.237a.625.625 0 0 1 .222-.855"/><path d="M12.708 10a.625.625 0 0 1 .625-.625H15a.625.625 0 0 1 0 1.25h-1.667a.625.625 0 0 1-.625-.625m-8.333 0A.625.625 0 0 1 5 9.375h1.667a.625.625 0 0 1 0 1.25H5A.625.625 0 0 1 4.375 10"/></svg>