<svg xmlns="http://www.w3.org/2000/svg" width="32" height="32" class="icon" viewBox="0 0 1024 1024"><path d="M821.333 352.725c0-32.426 0-54.784-1.45-72.106-1.408-17.024-3.968-26.368-7.467-33.28a81.8 81.8 0 0 0-35.755-35.755c-6.912-3.499-16.256-6.059-33.28-7.467-17.322-1.408-39.68-1.45-72.106-1.45h-318.55c-32.426 0-54.784 0-72.106 1.45-17.024 1.408-26.368 3.968-33.28 7.467-15.36 7.85-27.904 20.352-35.755 35.755-3.499 6.912-6.059 16.256-7.467 33.28-1.408 17.322-1.45 39.68-1.45 72.106v318.55c0 32.426 0 54.784 1.45 72.106 1.408 17.024 3.968 26.368 7.467 33.28 7.85 15.36 20.352 27.904 35.755 35.755 6.912 3.499 16.256 6.059 33.28 7.467 17.322 1.408 39.68 1.45 72.106 1.45h318.55c32.426 0 54.784 0 72.106-1.45 17.024-1.408 26.368-3.968 33.28-7.467 15.36-7.85 27.904-20.352 35.755-35.755 3.499-6.912 6.059-16.256 7.467-33.28 1.408-17.322 1.45-39.68 1.45-72.106zm64 318.55c0 31.36 0 56.746-1.706 77.354-1.707 20.907-5.291 39.68-14.166 57.131a145.8 145.8 0 0 1-63.701 63.701c-17.45 8.875-36.181 12.502-57.173 14.208-20.523 1.707-45.952 1.664-77.312 1.664h-318.55c-31.36 0-56.746 0-77.354-1.706-20.907-1.707-39.68-5.291-57.131-14.166a145.8 145.8 0 0 1-63.701-63.701c-8.875-17.45-12.502-36.181-14.208-57.173-1.707-20.523-1.664-45.952-1.664-77.312v-318.55c0-31.36 0-56.746 1.706-77.354 1.707-20.907 5.291-39.68 14.166-57.131a145.8 145.8 0 0 1 63.701-63.701c17.45-8.875 36.181-12.502 57.173-14.208 20.523-1.707 45.952-1.664 77.312-1.664h318.55c31.36 0 56.746 0 77.354 1.706 20.907 1.707 39.68 5.291 57.131 14.166a145.9 145.9 0 0 1 63.701 63.701c8.875 17.45 12.502 36.181 14.208 57.173 1.707 20.523 1.664 45.952 1.664 77.312z"/></svg>