<?xml version="1.0" encoding="utf-8"?><svg width="180" height="60">
<!--This file was automatically generated by BCGSoft ribbon/toolbar designer-->
<svg xmlns="http://www.w3.org/2000/svg" xmlns:xlink="http://www.w3.org/1999/xlink" viewBox="0 0 30 30" x="0" y="0"><path fill="#788b9c" d="M5.6 23.4H6.6V24.4H5.6z" transform="rotate(-45.001 6.12 23.881)"/><path fill="#788b9c" d="M8.2,22.5l-0.7-0.7l1.4-1.4l0.7,0.7L8.2,22.5z M11,19.7L10.3,19l1.4-1.4l0.7,0.7L11,19.7z M13.8,16.9l-0.7-0.7l1.4-1.4l0.7,0.7L13.8,16.9z M16.5,14.2l-0.7-0.7l1.4-1.4l0.7,0.7L16.5,14.2z M19.3,11.4l-0.7-0.7L20,9.3 l0.7,0.7L19.3,11.4z M22.1,8.6l-0.7-0.7l1.4-1.4l0.7,0.7L22.1,8.6z M24.9,5.8l-0.7-0.7l1.4-1.4l0.7,0.7L24.9,5.8z"/><path fill="#788b9c" d="M27.1 1.9H28.1V2.9H27.1z" transform="rotate(-45.001 27.647 2.354)"/><g><path fill="#8bb7f0" d="M20.5 28.5L20.5 9.5 1.5 9.5 1.5 5.5 24.5 5.5 24.5 28.5z"/><path fill="#4e7ab5" d="M24,6v22h-3V10V9h-1H2V6H24 M25,5H1v5h19v19h5V5L25,5z"/></g><g><path fill="#c2e8ff" d="M5.5 24.5L5.5 1.5 9.5 1.5 9.5 20.5 28.5 20.5 28.5 24.5z"/><path fill="#7496c4" d="M9,2v18v1h1h18v3H6V2H9 M10,1H5v24h24v-5H10V1L10,1z"/></g></svg><svg xmlns="http://www.w3.org/2000/svg" xmlns:xlink="http://www.w3.org/1999/xlink" viewBox="0 0 30 30" x="30" y="0"><path fill="#66798f" d="M28.5 6h-27C1.225 6 1 5.775 1 5.5v0C1 5.225 1.225 5 1.5 5h27C28.775 5 29 5.225 29 5.5v0C29 5.775 28.775 6 28.5 6zM28.5 15h-27C1.225 15 1 14.775 1 14.5v0C1 14.225 1.225 14 1.5 14h27c.275 0 .5.225.5.5v0C29 14.775 28.775 15 28.5 15zM28.5 24h-27C1.225 24 1 23.775 1 23.5l0 0C1 23.225 1.225 23 1.5 23h27c.275 0 .5.225.5.5l0 0C29 23.775 28.775 24 28.5 24z"/><path fill="#bae0bd" d="M13.5 3.5A2 2 0 1 0 13.5 7.5A2 2 0 1 0 13.5 3.5Z"/><path fill="#5e9c76" d="M13.5,4C14.327,4,15,4.673,15,5.5S14.327,7,13.5,7S12,6.327,12,5.5S12.673,4,13.5,4 M13.5,3 C12.119,3,11,4.119,11,5.5S12.119,8,13.5,8S16,6.881,16,5.5S14.881,3,13.5,3L13.5,3z"/><path fill="#bae0bd" d="M23.5 12.5A2 2 0 1 0 23.5 16.5A2 2 0 1 0 23.5 12.5Z"/><path fill="#5e9c76" d="M23.5,13c0.827,0,1.5,0.673,1.5,1.5S24.327,16,23.5,16S22,15.327,22,14.5S22.673,13,23.5,13 M23.5,12c-1.381,0-2.5,1.119-2.5,2.5s1.119,2.5,2.5,2.5s2.5-1.119,2.5-2.5S24.881,12,23.5,12L23.5,12z"/><g><path fill="#bae0bd" d="M8.5 21.5A2 2 0 1 0 8.5 25.5A2 2 0 1 0 8.5 21.5Z"/><path fill="#5e9c76" d="M8.5,22c0.827,0,1.5,0.673,1.5,1.5S9.327,25,8.5,25S7,24.327,7,23.5S7.673,22,8.5,22 M8.5,21 C7.119,21,6,22.119,6,23.5S7.119,26,8.5,26s2.5-1.119,2.5-2.5S9.881,21,8.5,21L8.5,21z"/></g></svg><svg xmlns="http://www.w3.org/2000/svg" xmlns:xlink="http://www.w3.org/1999/xlink" viewBox="0 0 30 30" x="60" y="0"><path fill="#c2e8ff" d="M20.295,13.367c0.021-0.416-0.125-0.808-0.409-1.106c-0.284-0.298-0.682-0.47-1.09-0.47 c-0.244,0-0.479,0.059-0.698,0.174L17.31,12.38l0.547-0.775c0.312-0.442,0.363-1,0.137-1.492s-0.683-0.815-1.222-0.866 l-0.925-0.087l0.877-0.354c0.501-0.202,0.846-0.642,0.923-1.176c0.078-0.535-0.129-1.054-0.552-1.39l-0.746-0.593l0.891,0.176 c0.101,0.02,0.2,0.03,0.297,0.03c0.48,0,0.935-0.236,1.217-0.631c0.284-0.398,0.355-0.893,0.196-1.357L18.647,2.98l0.631,0.614 C19.56,3.869,19.93,4.02,20.32,4.02c0.701,0,1.303-0.476,1.464-1.156l0.206-0.871l0.206,0.871c0.161,0.681,0.763,1.156,1.464,1.156 c0.39,0,0.76-0.151,1.042-0.426l0.631-0.614l-0.304,0.884c-0.16,0.464-0.088,0.959,0.196,1.358 c0.282,0.395,0.736,0.631,1.216,0.631c0.097,0,0.197-0.01,0.298-0.03l0.891-0.177L26.883,6.24c-0.423,0.335-0.629,0.855-0.552,1.39 c0.077,0.535,0.422,0.974,0.923,1.176l0.877,0.354l-0.925,0.087c-0.539,0.05-0.995,0.374-1.222,0.866s-0.175,1.05,0.137,1.492 l0.547,0.775l-0.788-0.415c-0.22-0.116-0.455-0.174-0.698-0.174c-0.409,0-0.806,0.171-1.09,0.47 c-0.284,0.298-0.429,0.691-0.409,1.106l0.045,0.914l-0.435-0.768c-0.27-0.477-0.758-0.762-1.306-0.762s-1.036,0.285-1.306,0.762 l-0.435,0.768L20.295,13.367z"/><path fill="#8bb7f0" d="M21.99,3.628c0.362,0.546,0.98,0.892,1.67,0.892c0.273,0,0.54-0.056,0.785-0.161 c0,0.408,0.126,0.808,0.373,1.154c0.315,0.441,0.792,0.733,1.316,0.816c-0.259,0.399-0.368,0.881-0.297,1.372 c0.071,0.487,0.308,0.916,0.665,1.224c-0.423,0.195-0.767,0.536-0.971,0.979c-0.208,0.452-0.24,0.946-0.104,1.403 c-0.081-0.01-0.163-0.015-0.244-0.015c-0.545,0-1.074,0.228-1.452,0.625c-0.218,0.229-0.374,0.499-0.463,0.792 c-0.351-0.294-0.798-0.458-1.278-0.458c-0.481,0-0.927,0.164-1.278,0.458c-0.089-0.293-0.245-0.563-0.463-0.792 c-0.378-0.397-0.908-0.625-1.453-0.625c-0.081,0-0.163,0.005-0.244,0.015c0.137-0.456,0.105-0.95-0.104-1.403 c-0.204-0.443-0.548-0.783-0.971-0.979c0.357-0.308,0.594-0.736,0.665-1.224c0.071-0.492-0.038-0.974-0.297-1.372 c0.524-0.083,1.001-0.375,1.316-0.816c0.247-0.346,0.373-0.746,0.373-1.154C19.78,4.464,20.046,4.52,20.32,4.52 C21.009,4.52,21.627,4.174,21.99,3.628 M21.99,1c-0.095,0-0.188,0.011-0.283,0.014l-0.41,1.735 c-0.115,0.485-0.54,0.771-0.977,0.771c-0.245,0-0.493-0.09-0.693-0.284l-1.258-1.224c-0.259,0.165-0.22,0.139-0.479,0.304 l0.588,1.711c0.228,0.664-0.277,1.326-0.94,1.326c-0.065,0-0.132-0.006-0.2-0.02l-1.692-0.336 c-0.133,0.288-0.114,0.245-0.247,0.533l1.387,1.101c0.601,0.477,0.463,1.424-0.248,1.711L15,8.962 c0.049,0.339,0.042,0.29,0.092,0.628l1.634,0.154c0.765,0.072,1.166,0.944,0.723,1.572l-0.901,1.276 c0.245,0.279,0.208,0.237,0.453,0.516l1.33-0.7c0.152-0.08,0.311-0.117,0.465-0.117c0.541,0,1.029,0.449,0.999,1.051l-0.072,1.457 c0.376,0.109,0.318,0.092,0.694,0.201l0.702-1.242c0.191-0.339,0.531-0.508,0.87-0.508s0.679,0.169,0.87,0.508L23.562,15 c0.376-0.109,0.318-0.092,0.694-0.201l-0.072-1.457c-0.03-0.602,0.458-1.051,0.999-1.051c0.154,0,0.313,0.037,0.465,0.117l1.33,0.7 c0.245-0.279,0.208-0.237,0.453-0.516l-0.901-1.276c-0.443-0.628-0.042-1.5,0.723-1.572l1.634-0.154 c0.049-0.339,0.042-0.29,0.092-0.628l-1.537-0.62c-0.711-0.287-0.848-1.234-0.248-1.711l1.376-1.092 C28.435,5.248,28.455,5.291,28.32,5l-1.679,0.333c-0.068,0.013-0.135,0.02-0.2,0.02c-0.663,0-1.169-0.662-0.94-1.326l0.588-1.711 c-0.259-0.165-0.22-0.139-0.479-0.304l-1.258,1.224c-0.2,0.194-0.448,0.284-0.693,0.284c-0.437,0-0.863-0.286-0.977-0.771 l-0.41-1.735C22.178,1.011,22.085,1,21.99,1L21.99,1z"/><path fill="#ffeea3" d="M3.414,28.5c-0.133,0-0.259-0.052-0.354-0.146l-1.414-1.414C1.552,26.845,1.5,26.719,1.5,26.586 s0.052-0.259,0.146-0.354L21.232,6.646c0.095-0.094,0.22-0.146,0.354-0.146s0.259,0.052,0.354,0.146l1.414,1.414 c0.094,0.095,0.146,0.22,0.146,0.354s-0.052,0.259-0.146,0.354L3.768,28.354C3.673,28.448,3.547,28.5,3.414,28.5z"/><path fill="#c29653" d="M21.586,7L23,8.414L3.414,28L2,26.586L21.586,7C21.585,7,21.585,7,21.586,7 M21.586,6 c-0.256,0-0.512,0.098-0.707,0.293L1.293,25.879c-0.391,0.391-0.391,1.024,0,1.414l1.414,1.414C2.902,28.902,3.158,29,3.414,29 c0.256,0,0.512-0.098,0.707-0.293L23.707,9.121c0.391-0.391,0.391-1.024,0-1.414l-1.414-1.414C22.098,6.098,21.842,6,21.586,6 L21.586,6z"/><path fill="#839cb2" d="M3.414,28.5c-0.133,0-0.259-0.052-0.354-0.146l-1.414-1.414C1.552,26.845,1.5,26.719,1.5,26.586 s0.052-0.259,0.146-0.354l12.439-12.439l2.121,2.121L3.768,28.354C3.673,28.448,3.547,28.5,3.414,28.5z"/><path fill="#66798f" d="M14.086,14.5l1.414,1.414L3.414,28L2,26.586L14.086,14.5 M14.086,13.086L1.293,25.879 c-0.391,0.391-0.391,1.024,0,1.414l1.414,1.414C2.902,28.902,3.158,29,3.414,29s0.512-0.098,0.707-0.293l12.793-12.793 L14.086,13.086L14.086,13.086z"/><g><path fill="#c2e8ff" d="M26.45,28.5c-0.199-0.978-0.972-1.75-1.95-1.95V26.45c0.978-0.199,1.75-0.972,1.95-1.95h0.101 c0.199,0.978,0.972,1.75,1.95,1.95v0.101c-0.978,0.199-1.75,0.972-1.95,1.95H26.45z"/><path fill="#8bb7f0" d="M26.5,25.657c0.222,0.334,0.509,0.621,0.843,0.843c-0.334,0.222-0.621,0.509-0.843,0.843 c-0.222-0.334-0.509-0.621-0.843-0.843C25.991,26.278,26.278,25.991,26.5,25.657 M27,24h-1c0,1.105-0.895,2-2,2v1 c1.105,0,2,0.895,2,2h1c0-1.105,0.895-2,2-2v-1C27.895,26,27,25.105,27,24L27,24z"/></g><g><path fill="#c2e8ff" d="M20.45,23.5c-0.199-0.978-0.972-1.75-1.95-1.95V21.45c0.978-0.199,1.75-0.972,1.95-1.95h0.101 c0.199,0.978,0.972,1.75,1.95,1.95v0.101c-0.978,0.199-1.75,0.972-1.95,1.95H20.45z"/><path fill="#8bb7f0" d="M20.5,20.657c0.222,0.334,0.509,0.621,0.843,0.843c-0.334,0.222-0.621,0.509-0.843,0.843 c-0.222-0.334-0.509-0.621-0.843-0.843C19.991,21.278,20.278,20.991,20.5,20.657 M21,19h-1c0,1.105-0.895,2-2,2v1 c1.105,0,2,0.895,2,2h1c0-1.105,0.895-2,2-2v-1C21.895,21,21,20.105,21,19L21,19z"/></g></svg><svg xmlns="http://www.w3.org/2000/svg" xmlns:xlink="http://www.w3.org/1999/xlink" viewBox="0 0 30 30" x="90" y="0"><path fill="#bae0bd" d="M2.5 25.5H27.5V28.5H2.5z"/><path fill="#5e9c76" d="M27,26v2H3v-2H27 M28,25H2v4h26V25L28,25z"/><g><path fill="#b0c1d4" d="M20.627,22.5l-1.427-5h-8.4l-1.427,5H5.695l7.043-21h4.691l6.881,21H20.627z M11.656,14.5h6.687 L15.468,4.428h-0.938L11.656,14.5z"/><path fill="#66798f" d="M17.067,2l6.553,20h-2.616l-1.22-4.275L19.577,17h-0.754h-7.646h-0.755l-0.207,0.726L8.995,22H6.39 l6.707-20H17.067 M10.993,15h1.325h5.362h1.325l-0.364-1.274l-2.59-9.073l-0.207-0.726h-0.754h-0.183h-0.755l-0.207,0.726 l-2.589,9.073L10.993,15 M17.792,1h-5.413L5,23h4.75l1.427-5h7.646l1.427,5H25L17.792,1L17.792,1z M12.319,14l2.589-9.073h0.183 L17.681,14H12.319L12.319,14z"/></g></svg><svg xmlns="http://www.w3.org/2000/svg" xmlns:xlink="http://www.w3.org/1999/xlink" viewBox="0 0 30 30" x="120" y="0"><path fill="#788b9c" d="M14.5,29.5c-0.3,0-0.5-0.2-0.5-0.5c0-1.7,3.8-8.2,4.2-8.9c0.1-0.2,0.4-0.3,0.7-0.2 c0.2,0.1,0.3,0.4,0.2,0.7c-1.6,2.7-4,7.3-4,8.4C15,29.3,14.8,29.5,14.5,29.5z"/><path fill="#bae0bd" d="M20,20.1c-0.4,0-0.8-0.1-1.2-0.2c-1.5-0.5-2.7-2.2-3.3-4.6c-0.5-2.2-0.5-4.7,0.1-6.5 c0.9-2.6,3.4-4.3,6.2-4.3c0.8,0,1.5,0.1,2.2,0.4c1.7,0.6,3,1.8,3.8,3.3c0.8,1.6,0.9,3.3,0.3,5C27,16.3,23.2,20.1,20,20.1z"/><path fill="#5e9c76" d="M21.8,4v1c0.7,0,1.4,0.1,2.1,0.4c3.2,1.1,4.9,4.6,3.8,7.7c-1,3-4.8,6.6-7.7,6.6 c-0.4,0-0.7-0.1-1-0.2C15.9,18.4,15,12.2,16.1,9c0.8-2.4,3.1-4,5.7-4L21.8,4 M21.8,4c-2.9,0-5.6,1.8-6.6,4.7 c-1.3,3.7-0.3,10.4,3.5,11.7c0.4,0.2,0.9,0.2,1.4,0.2c3.5,0,7.5-4,8.7-7.2c1.3-3.7-0.7-7.7-4.4-9C23.4,4.1,22.6,4,21.8,4L21.8,4z"/><path fill="#5e9c76" d="M19.5 22L16.9 21.1 18 19.6 19.6 20.2z"/><path fill="#788b9c" d="M14.5,29.5c-0.3,0-0.5-0.2-0.5-0.5c0-1-2.2-6.1-3.6-9.1c-0.1-0.3,0-0.5,0.2-0.7 c0.3-0.1,0.5,0,0.7,0.2c0.4,0.8,3.7,8,3.7,9.5C15,29.3,14.8,29.5,14.5,29.5z"/><path fill="#f78f8f" d="M9.5,19.2c-3,0-6.7-3.6-7.7-6.5C0.7,9.5,2.5,6,5.7,4.8c0.7-0.2,1.4-0.4,2.1-0.4c2.6,0,5,1.6,5.8,4.1 c1.1,3.2,0.2,9.3-3,10.4C10.3,19.1,9.9,19.2,9.5,19.2L9.5,19.2z"/><path fill="#c74343" d="M7.8,5c2.4,0,4.6,1.5,5.3,3.7c1,3,0.2,8.8-2.6,9.8c-0.3,0.1-0.6,0.2-0.9,0.2 c-2.7,0-6.3-3.4-7.2-6.2c-0.5-1.4-0.4-2.9,0.3-4.3c0.7-1.4,1.8-2.4,3.3-2.9C6.5,5.1,7.1,5,7.8,5 M7.8,4C7,4,6.3,4.1,5.5,4.4 c-3.5,1.2-5.4,5-4.2,8.5c1.1,3,4.9,6.8,8.2,6.8c0.4,0,0.9-0.1,1.3-0.2c3.5-1.2,4.5-7.6,3.3-11.1C13.1,5.7,10.6,4,7.8,4L7.8,4z"/><path fill="#c74343" d="M9.9 21L12.5 20.1 11.4 18.8 9.9 19.3z"/><path fill="#788b9c" d="M14.5,29.5c-0.3,0-0.5-0.2-0.5-0.5V17.7c0-0.3,0.2-0.5,0.5-0.5s0.5,0.2,0.5,0.5V29 C15,29.3,14.8,29.5,14.5,29.5z"/><g><path fill="#8bb7f0" d="M14.5,18.5c-3.8,0-7-6.2-7-10.1c0-3.8,3.1-6.9,7-6.9s7,3.1,7,6.9C21.5,12.3,18.3,18.5,14.5,18.5z"/><path fill="#4e7ab5" d="M14.5,2C18.1,2,21,4.9,21,8.4c0,3.6-3,9.6-6.5,9.6S8,12,8,8.4C8,4.9,10.9,2,14.5,2 M14.5,1 C10.4,1,7,4.3,7,8.4C7,12.6,10.4,19,14.5,19S22,12.6,22,8.4C22,4.3,18.6,1,14.5,1L14.5,1z"/></g><g><path fill="#4e7ab5" d="M16.1 20.4L12.9 20.4 13.5 18.5 15.5 18.5z"/></g></svg><svg xmlns="http://www.w3.org/2000/svg" xmlns:xlink="http://www.w3.org/1999/xlink" viewBox="0 0 30 30" x="150" y="0"><path fill="#788b9c" d="M22.7 7.4L15 2.6 7.3 7.4 6.7 6.6 15 1.4 23.3 6.6z"/><path fill="#ffc49c" d="M1.5 6.5H28.5V27.5H1.5z"/><path fill="#a16a4a" d="M28,7v20H2V7H28 M29,6H1v22h28V6L29,6z"/><path fill="#36404d" d="M15 1A1 1 0 1 0 15 3A1 1 0 1 0 15 1Z"/><path fill="#bae0bd" d="M4.5 9.5H25.5V24.5H4.5z"/><path fill="#5e9c76" d="M25,10v14H5V10H25 M26,9H4v16h22V9L26,9z"/><path fill="#fff" d="M17 13c0 1.1-2 4-2 4s-2-2.9-2-4 .9-2 2-2S17 11.9 17 13zM13 21c0-1.1 2-4 2-4s2 2.9 2 4-.9 2-2 2S13 22.1 13 21z"/><path fill="#fff" d="M12.5 13.3c1 .6 2.5 3.7 2.5 3.7s-3.5.3-4.5-.3c-1-.6-1.3-1.8-.7-2.7S11.6 12.7 12.5 13.3zM17.5 20.7C16.5 20.2 15 17 15 17s3.5-.3 4.5.3c1 .6 1.3 1.8.7 2.7C19.6 21 18.4 21.3 17.5 20.7z"/><path fill="#fff" d="M10.5 17.3c1-.6 4.5-.3 4.5-.3s-1.5 3.2-2.5 3.7c-1 .6-2.2.2-2.7-.7S9.6 17.8 10.5 17.3zM19.5 16.7C18.5 17.3 15 17 15 17s1.5-3.2 2.5-3.7c1-.6 2.2-.2 2.7.7C20.7 15 20.4 16.2 19.5 16.7z"/><path fill="#ffeea3" d="M15 15A2 2 0 1 0 15 19A2 2 0 1 0 15 15Z"/></svg></svg>