<?xml version="1.0" encoding="utf-8"?><svg width="320" height="320">
<!--This file was automatically generated by BCGSoft ribbon/toolbar designer-->
<svg xmlns="http://www.w3.org/2000/svg" xmlns:xlink="http://www.w3.org/1999/xlink" viewBox="0 0 30 30" x="0" y="0"><path fill="#dbb065" d="M1.5 26.5L1.5 3.5 9.793 3.5 12.793 6.5 26.5 6.5 26.5 26.5z"/><path fill="#967a44" d="M9.586,4l2.707,2.707L12.586,7H13h13v19H2V4H9.586 M10,3H1v24h26V6H13L10,3L10,3z"/><g><path fill="#f5ce85" d="M1.61 26.5L4.41 12.5 12.151 12.5 15.151 10.5 28.437 10.5 26.555 26.5z"/><path fill="#967a44" d="M27.875,11l-1.765,15H2.22l2.6-13H12h0.303l0.252-0.168L15.303,11H27.875 M29,10H15l-3,2H4L1,27h26 L29,10L29,10z"/></g></svg><svg xmlns="http://www.w3.org/2000/svg" xmlns:xlink="http://www.w3.org/1999/xlink" viewBox="0 0 30 30" x="30" y="0"><path fill="#fff" d="M5.5 27.5L5.5 2.5 18.8 2.5 24.5 8.2 24.5 27.5z"/><path fill="#788b9c" d="M18.6,3L24,8.4V27H6V3H18.6 M19,2H5v26h20V8L19,2L19,2z"/><path fill="#c5d4de" d="M15.5,28H25V14.2c-0.3-0.1-0.7-0.1-1-0.2V27h-9.1C15.1,27.3,15.3,27.7,15.5,28z"/><path fill="#fff" d="M18.5 8.5L18.5 2.5 18.8 2.5 24.5 8.2 24.5 8.5z"/><path fill="#788b9c" d="M19,3.4L23.6,8H19V3.4 M19,2h-1v7h7V8L19,2L19,2z"/><path fill="#bae0bd" d="M23 16.5A6.5 6.5 0 1 0 23 29.5A6.5 6.5 0 1 0 23 16.5Z"/><path fill="#5e9c76" d="M23,17c3.3,0,6,2.7,6,6s-2.7,6-6,6s-6-2.7-6-6S19.7,17,23,17 M23,16c-3.9,0-7,3.1-7,7s3.1,7,7,7 s7-3.1,7-7S26.9,16,23,16L23,16z"/><path fill="#fff" d="M22 19H24V27H22z"/><path fill="#fff" d="M19 22H27V24H19z"/></svg><svg xmlns="http://www.w3.org/2000/svg" xmlns:xlink="http://www.w3.org/1999/xlink" viewBox="0 0 30 30" x="60" y="0"><path fill="#66798f" d="M15,1c0.551,0,1,0.449,1,1s-0.449,1-1,1s-1-0.449-1-1S14.449,1,15,1 M15,0c-1.105,0-2,0.895-2,2 s0.895,2,2,2s2-0.895,2-2S16.105,0,15,0L15,0z"/><path fill="#f5c276" d="M5,28.5c-0.276,0-0.5-0.225-0.5-0.5V3c0-0.275,0.224-0.5,0.5-0.5h7.55c0.232,1.14,1.242,2,2.45,2 s2.217-0.86,2.45-2H25c0.276,0,0.5,0.225,0.5,0.5v25c0,0.275-0.224,0.5-0.5,0.5H5z"/><path fill="#c29653" d="M25,3v25H5V3h7.171C12.584,4.164,13.696,5,15,5s2.416-0.836,2.829-2H25 M25,2h-8 c0,1.105-0.895,2-2,2s-2-0.895-2-2H5C4.448,2,4,2.448,4,3v25c0,0.552,0.448,1,1,1h20c0.552,0,1-0.448,1-1V3C26,2.448,25.552,2,25,2 L25,2z"/><path fill="#fff" d="M7 5H23V26H7z"/><path fill="#66798f" d="M16.495,2c0,1.105-0.39,1.387-1.495,1.387S13.559,3.105,13.559,2H10v3c0,0.552,0.448,1,1,1h8c0.552,0,1-0.448,1-1V2H16.495z"/></svg><svg xmlns="http://www.w3.org/2000/svg" xmlns:xlink="http://www.w3.org/1999/xlink" viewBox="0 0 80 80" x="90" y="0"><path fill="#8bb7f0" d="M40.5,70.5v-9H54c7.995,0,14.5-6.505,14.5-14.5S61.995,32.5,54,32.5H21.5v13.335L2.726,28 L21.5,10.165V23.5H54c12.958,0,23.5,10.542,23.5,23.5S66.958,70.5,54,70.5H40.5z"/><path fill="#4e7ab5" d="M21,11.329V23v1h1h32c12.682,0,23,10.318,23,23c0,12.682-10.318,23-23,23H41v-8h13 c8.271,0,15-6.729,15-15c0-8.271-6.729-15-15-15H22h-1v1v11.671L3.452,28L21,11.329 M22,9L2,28l20,19V33h32c7.732,0,14,6.268,14,14 v0c0,7.732-6.268,14-14,14H40v10h14c13.255,0,24-10.745,24-24v0c0-13.255-10.745-24-24-24H22V9L22,9z"/></svg><svg xmlns="http://www.w3.org/2000/svg" xmlns:xlink="http://www.w3.org/1999/xlink" viewBox="0 0 30 30" x="0" y="30"><path fill="#b6c9d6" d="M2.931,28.5c-0.382,0-0.742-0.149-1.012-0.419c-0.558-0.558-0.558-1.466,0-2.024l14.007-13.353 l1.375,1.377L3.935,28.089C3.673,28.351,3.313,28.5,2.931,28.5z"/><path fill="#788b9c" d="M15.917,13.403l0.685,0.686L3.589,27.727C3.413,27.903,3.18,28,2.931,28s-0.482-0.097-0.658-0.273 c-0.363-0.363-0.363-0.953-0.017-1.3L15.917,13.403 M15.934,12.005L1.565,25.704c-0.754,0.754-0.754,1.977,0,2.731 C1.943,28.811,2.437,29,2.931,29c0.494,0,0.988-0.189,1.365-0.566L18,14.073L15.934,12.005L15.934,12.005z"/><path fill="#d1edff" d="M19,20.5c-5.238,0-9.5-4.262-9.5-9.5s4.262-9.5,9.5-9.5s9.5,4.262,9.5,9.5S24.238,20.5,19,20.5z"/><path fill="#788b9c" d="M19,2c4.963,0,9,4.037,9,9s-4.037,9-9,9s-9-4.037-9-9S14.037,2,19,2 M19,1C13.477,1,9,5.477,9,11 s4.477,10,10,10s10-4.477,10-10S24.523,1,19,1L19,1z"/><path fill="#36404d" d="M18 6H20V16H18z" transform="rotate(90 19 11)"/></svg><svg xmlns="http://www.w3.org/2000/svg" xmlns:xlink="http://www.w3.org/1999/xlink" viewBox="0 0 30 30" x="30" y="30"><path fill="#b6c9d6" d="M2.931,28.5c-0.382,0-0.742-0.149-1.012-0.419c-0.558-0.558-0.558-1.466,0-2.024l14.007-13.353 l1.375,1.377L3.935,28.089C3.673,28.351,3.313,28.5,2.931,28.5z"/><path fill="#788b9c" d="M15.917,13.403l0.685,0.686L3.589,27.727C3.413,27.903,3.18,28,2.931,28s-0.482-0.097-0.658-0.273 c-0.363-0.363-0.363-0.953-0.017-1.3L15.917,13.403 M15.934,12.005L1.565,25.704c-0.754,0.754-0.754,1.977,0,2.731 C1.943,28.811,2.437,29,2.931,29c0.494,0,0.988-0.189,1.365-0.566L18,14.073L15.934,12.005L15.934,12.005z"/><path fill="#d1edff" d="M19,20.5c-5.238,0-9.5-4.262-9.5-9.5s4.262-9.5,9.5-9.5s9.5,4.262,9.5,9.5S24.238,20.5,19,20.5z"/><path fill="#788b9c" d="M19,2c4.963,0,9,4.037,9,9s-4.037,9-9,9s-9-4.037-9-9S14.037,2,19,2 M19,1C13.477,1,9,5.477,9,11 s4.477,10,10,10s10-4.477,10-10S24.523,1,19,1L19,1z"/><path fill="#36404d" d="M18 6H20V16H18z"/><path fill="#36404d" d="M18 6H20V16H18z" transform="rotate(90 19 11)"/></svg><svg xmlns="http://www.w3.org/2000/svg" xmlns:xlink="http://www.w3.org/1999/xlink" viewBox="0 0 30 30" x="60" y="30"><path fill="#f2faff" d="M2.5 2.5H27.5V27.5H2.5z"/><path fill="#788b9c" d="M27,3v24H3V3H27 M28,2H2v26h26V2L28,2z"/><path fill="#4e7ab5" d="M21 14L16 9 21 9z"/><path fill="#4e7ab5" d="M11.7 13.5H20.299999999999997V14.5H11.7z" transform="rotate(-45.001 15.972 14.028)"/><path fill="#8bb7f0" d="M2.5 16.5H13.5V27.5H2.5z"/><path fill="#4e7ab5" d="M13,17v10H3V17H13 M14,16H2v12h12V16L14,16z"/><path fill="#f2faff" d="M22 2H24V4H22zM6 2H8V4H6zM14 2H16V4H14zM22 26H24V28H22zM14 26H16V28H14zM26 22H28V24H26zM26 6H28V8H26zM26 14H28V16H26zM2 6H4V8H2zM2 14H4V16H2z"/></svg><svg xmlns="http://www.w3.org/2000/svg" xmlns:xlink="http://www.w3.org/1999/xlink" viewBox="0 0 30 30" x="90" y="30"><path fill="#8bb7f0" d="M3,26.5c-0.827,0-1.5-0.673-1.5-1.5V6c0-0.827,0.673-1.5,1.5-1.5h24c0.827,0,1.5,0.673,1.5,1.5v19 c0,0.827-0.673,1.5-1.5,1.5H3z"/><path fill="#4e7ab5" d="M27,5c0.551,0,1,0.449,1,1v19c0,0.551-0.449,1-1,1H3c-0.551,0-1-0.449-1-1V6c0-0.551,0.449-1,1-1 H27 M27,4H3C1.9,4,1,4.9,1,6v19c0,1.1,0.9,2,2,2h24c1.1,0,2-0.9,2-2V6C29,4.9,28.1,4,27,4L27,4z"/><path fill="#fff" d="M12 11v8.948h-1.416v-7.214c-.257.183-.532.339-.827.467-.295.128-.632.241-1.011.339v-1.208c.236-.077.465-.159.684-.244.221-.085.437-.181.65-.287.214-.105.43-.224.647-.354.217-.13.442-.279.674-.446H12zM15.109 15.172c-.244 0-.452-.081-.623-.241s-.256-.353-.256-.577c0-.228.085-.423.256-.586.171-.163.379-.244.623-.244.248 0 .458.082.632.244C15.914 13.931 16 14.126 16 14.354c0 .224-.086.417-.259.577C15.567 15.092 15.357 15.172 15.109 15.172zM15.109 20c-.244 0-.452-.081-.623-.241s-.256-.353-.256-.577c0-.228.085-.423.256-.586s.379-.244.623-.244c.248 0 .458.082.632.244C15.914 18.759 16 18.954 16 19.182c0 .224-.086.416-.259.577C15.567 19.919 15.357 20 15.109 20zM21 11v8.948h-1.416v-7.214c-.257.183-.532.339-.827.467-.295.128-.632.241-1.011.339v-1.208c.236-.077.465-.159.684-.244.221-.085.437-.181.65-.287.214-.105.43-.224.647-.354.217-.13.442-.279.674-.446H21z"/></svg><svg xmlns="http://www.w3.org/2000/svg" xmlns:xlink="http://www.w3.org/1999/xlink" data-name="Слой 1" viewBox="0 0 16 16" x="0" y="60"><path fill="#e1ebf2" d="M1,14.5A.5.5,0,0,1,.5,14V12.5h15V14a.5.5,0,0,1-.5.5Z"/><path fill="#a3b7cc" d="M15,13v1H1V13H15m1-1H0v2a1,1,0,0,0,1,1H15a1,1,0,0,0,1-1V12Z"/><path fill="#66798f" d="M1.5,12.5v-5H15a.5.5,0,0,1,.5.5v4a.5.5,0,0,1-.5.5Z"/><path fill="#36404d" d="M15,8v4H2V8H15m0-1H1v6H15a1,1,0,0,0,1-1V8a1,1,0,0,0-1-1Z"/><path fill="#36404d" d="M2 8H7V12H2z"/><path fill="#bae0bd" d="M11 8H12V12H11z"/><path fill="#e1ebf2" d="M.55,12.5s0,0,0,0V7.87L11.39,1.53h.11V6.13Z"/><path fill="#a3b7cc" d="M11,2.34V5.87L1,11.66V8.13L11,2.34M11.45,1a.54.54,0,0,0-.31.1L.23,7.42A.55.55,0,0,0,0,7.87v4.59A.55.55,0,0,0,.55,13a.54.54,0,0,0,.31-.1L11.77,6.58A.55.55,0,0,0,12,6.13V1.55A.55.55,0,0,0,11.45,1Z"/><path fill="#66798f" d="M5.72 6.3100000000000005A1.39 0.69 0 1 0 5.72 7.6899999999999995A1.39 0.69 0 1 0 5.72 6.3100000000000005Z" transform="rotate(-27.04 5.728 7.008)"/></svg><svg xmlns="http://www.w3.org/2000/svg" xmlns:xlink="http://www.w3.org/1999/xlink" viewBox="0 0 30 30" x="16" y="60"><path fill="#f78f8f" d="M15 17.722L6.429 26.293 3.707 23.571 12.278 15 3.707 6.429 6.429 3.707 15 12.278 23.571 3.707 26.293 6.429 17.722 15 26.293 23.571 23.571 26.293z"/><path fill="#c74343" d="M23.571,4.414l2.014,2.014l-7.864,7.864L17.014,15l0.707,0.707l7.864,7.864l-2.014,2.014 l-7.864-7.864L15,17.014l-0.707,0.707l-7.864,7.864l-2.014-2.014l7.864-7.864L12.986,15l-0.707-0.707L4.414,6.429l2.014-2.014 l7.864,7.864L15,12.986l0.707-0.707L23.571,4.414 M23.571,3L15,11.571L6.429,3L3,6.429L11.571,15L3,23.571L6.429,27L15,18.429 L23.571,27L27,23.571L18.429,15L27,6.429L23.571,3L23.571,3z"/></svg><svg xmlns="http://www.w3.org/2000/svg" xmlns:xlink="http://www.w3.org/1999/xlink" viewBox="0 0 30 30" x="46" y="60"><path fill="#dcd5f2" d="M2.5 27.5L2.5 2.5 21.793 2.5 27.5 8.207 27.5 27.5z"/><path fill="#8b75a1" d="M21.586,3L27,8.414V27H3V3H21.586 M22,2H2v26h26V8L22,2L22,2z"/><path fill="#fff" d="M5.5 15.5H24.5V27.5H5.5z"/><path fill="#788b9c" d="M24,16v11H6V16H24 M25,15H5v13h20V15L25,15z"/><path fill="#c6bae6" d="M19,3H7v7c0,0.552,0.448,1,1,1h11c0.552,0,1-0.448,1-1V4C20,3.448,19.552,3,19,3z"/><path fill="#e1ebf2" d="M10,10.5c-0.275,0-0.5-0.224-0.5-0.5V3c0-0.276,0.225-0.5,0.5-0.5h11c0.275,0,0.5,0.224,0.5,0.5v7 c0,0.276-0.225,0.5-0.5,0.5H10z"/><path fill="#66798f" d="M21,3v7H10V3H21 M21,2H10C9.448,2,9,2.448,9,3v7c0,0.552,0.448,1,1,1h11c0.552,0,1-0.448,1-1V3 C22,2.448,21.552,2,21,2L21,2z"/><path fill="#c2e8ff" d="M8 21H22V22H8zM8 18H22V19H8zM8 24H22V25H8z"/><path fill="#788b9c" d="M17 4H19V9H17z"/></svg><svg xmlns="http://www.w3.org/2000/svg" xmlns:xlink="http://www.w3.org/1999/xlink" viewBox="0 0 30 30" x="76" y="60"><path fill="#dcd5f2" d="M2.5 27.5L2.5 2.5 21.793 2.5 27.5 8.207 27.5 27.5z"/><path fill="#8b75a1" d="M21.586,3L27,8.414V27H3V3H21.586 M22,2H2v26h26V8L22,2L22,2z"/><path fill="#fff" d="M5.5 15.5H24.5V27.5H5.5z"/><path fill="#788b9c" d="M24,16v11H6V16H24 M25,15H5v13h20V15L25,15z"/><path fill="#c6bae6" d="M19,3H7v7c0,0.552,0.448,1,1,1h11c0.552,0,1-0.448,1-1V4C20,3.448,19.552,3,19,3z"/><path fill="#e1ebf2" d="M10,10.5c-0.276,0-0.5-0.224-0.5-0.5V3c0-0.276,0.224-0.5,0.5-0.5h11c0.276,0,0.5,0.224,0.5,0.5v7 c0,0.276-0.224,0.5-0.5,0.5H10z"/><path fill="#66798f" d="M21,3v7H10V3H21 M21,2H10C9.448,2,9,2.448,9,3v7c0,0.552,0.448,1,1,1h11c0.552,0,1-0.448,1-1V3 C22,2.448,21.552,2,21,2L21,2z"/><path fill="#c2e8ff" d="M8 21H22V22H8zM8 18H22V19H8zM8 24H22V25H8z"/><path fill="#788b9c" d="M17 4H19V9H17z"/><path fill="#f5ce85" d="M16.576 21.258L17.762 20.07 20.085 22.094 18.754 23.424 14.951 25.049z"/><path fill="#967a44" d="M17.786,20.754l1.567,1.365l-0.884,0.884l-2.567,1.096l1.095-2.556L17.786,20.754 M17.739,19.387 l-1.585,1.585L14,25.998l5.039-2.152l1.778-1.778L17.739,19.387L17.739,19.387z"/><g><path fill="#36404d" d="M15.222 23.151L14.002 26 16.858 24.78z"/></g><g><path fill="#f78f8f" d="M26.288,11.538l0.589-0.589c0.29-0.29,0.676-0.45,1.086-0.45c0.411,0,0.796,0.16,1.086,0.45 c0.599,0.599,0.599,1.574,0,2.173l-0.589,0.589L26.288,11.538z"/><path fill="#c74343" d="M27.964,10.998c0.277,0,0.537,0.108,0.733,0.304c0.404,0.404,0.404,1.062,0,1.466l-0.236,0.236 l-1.466-1.466l0.236-0.236C27.426,11.106,27.687,10.998,27.964,10.998 M27.964,9.998c-0.521,0-1.042,0.199-1.44,0.596 l-0.943,0.943l2.88,2.88l0.943-0.943c0.795-0.795,0.795-2.085,0-2.88C29.006,10.197,28.485,9.998,27.964,9.998L27.964,9.998z"/></g><g><path fill="#ffeea3" d="M19.252,22.895c-0.126-0.148-0.338-0.318-0.678-0.399c-0.157-0.578-0.612-0.899-1.052-1.032 c-0.081-0.303-0.247-0.534-0.457-0.696l7.825-7.832l2.173,2.173l-7.797,7.803C19.262,22.906,19.257,22.9,19.252,22.895z"/><path fill="#ba9b48" d="M24.89,13.643l1.466,1.466l-7.118,7.124c-0.08-0.05-0.17-0.096-0.269-0.136 c-0.217-0.51-0.625-0.838-1.053-1.021c-0.045-0.105-0.099-0.202-0.16-0.292L24.89,13.643 M24.89,12.229l-8.736,8.743 c0,0,0.004,0,0.011,0c0.105,0,0.91,0.029,0.91,0.918c0,0,1.057,0.033,1.057,1.056c1.052,0,0.907,0.9,0.907,0.9l8.73-8.738 L24.89,12.229L24.89,12.229z"/></g><g><path fill="#d9e7f5" d="M25.464 11.877H27.705V14.950000000000001H25.464z" transform="rotate(-45.009 26.585 13.414)"/><path fill="#788b9c" d="M26.291,12.242l1.466,1.466l-0.878,0.878l-1.466-1.466L26.291,12.242 M26.291,10.828l-2.292,2.292 l2.88,2.88l2.292-2.292L26.291,10.828L26.291,10.828z"/></g></svg><svg xmlns="http://www.w3.org/2000/svg" xmlns:xlink="http://www.w3.org/1999/xlink" viewBox="0 0 30 30" x="0" y="90"><path fill="#f2faff" d="M11.5 24.5L11.5 1.5 22.793 1.5 28.5 7.207 28.5 24.5z"/><path fill="#788b9c" d="M22.586,2L28,7.414V24H12V2H22.586 M23,1H11v24h18V7L23,1L23,1z"/><path fill="#fff" d="M22.5 7.5L22.5 1.5 22.793 1.5 28.5 7.207 28.5 7.5z"/><path fill="#788b9c" d="M23,2.414L27.586,7H23V2.414 M23,1h-1v7h7V7L23,1L23,1z"/><g><path fill="#fff" d="M1.5 28.5L1.5 5.5 12.793 5.5 18.5 11.207 18.5 28.5z"/><path fill="#788b9c" d="M12.586,6L18,11.414V28H2V6H12.586 M13,5H1v24h18V11L13,5L13,5z"/></g><g><path fill="#fff" d="M12.5 11.5L12.5 5.5 12.793 5.5 18.5 11.207 18.5 11.5z"/><path fill="#788b9c" d="M13,6.414L17.586,11H13V6.414 M13,5h-1v7h7v-1L13,5L13,5z"/></g></svg><svg xmlns="http://www.w3.org/2000/svg" xmlns:xlink="http://www.w3.org/1999/xlink" viewBox="0 0 30 30" x="30" y="90"><path fill="#b0c1d4" d="M3,23.5c-0.8,0-1.5-0.7-1.5-1.5V10c0-0.8,0.7-1.5,1.5-1.5h2.5v-2h19v2H27c0.8,0,1.5,0.7,1.5,1.5v12 c0,0.8-0.7,1.5-1.5,1.5H3z"/><path fill="#66798f" d="M24,7v1v1h1h2c0.6,0,1,0.4,1,1v12c0,0.6-0.4,1-1,1H3c-0.6,0-1-0.4-1-1V10c0-0.6,0.4-1,1-1h2h1V8V7 H24 M25,6H5v2H3c-1.1,0-2,0.9-2,2v12c0,1.1,0.9,2,2,2h24c1.1,0,2-0.9,2-2V10c0-1.1-0.9-2-2-2h-2V6L25,6z"/><path fill="#fff" d="M6.5 1.5H23.5V8.5H6.5z"/><path fill="#788b9c" d="M23,2v6H7V2H23 M24,1H6v8h18V1L24,1z"/><path fill="#8bb7f0" d="M8,15.5c-0.8,0-1.5-0.7-1.5-1.5V8.5h17V14c0,0.8-0.7,1.5-1.5,1.5H8z"/><path fill="#4e7ab5" d="M23,9v5c0,0.6-0.4,1-1,1H8c-0.6,0-1-0.4-1-1V9H23 M24,8H6v6c0,1.1,0.9,2,2,2h14c1.1,0,2-0.9,2-2V8 L24,8z"/><path fill="#fff" d="M6.5 19.5H23.5V28.5H6.5z"/><path fill="#788b9c" d="M23,20v8H7v-8H23 M24,19H6v10h18V19L24,19z"/><path fill="#d6e3ed" d="M7 20H23V23H7z"/><path fill="#788b9c" d="M10 22H20V23H10zM10 25H20V26H10z"/><g><path fill="#ffeea3" d="M26 11A1 1 0 1 0 26 13A1 1 0 1 0 26 11Z"/></g><path fill="#66798f" d="M6,22v-2h18v2h0.5c0.8,0,1.5-0.7,1.5-1.5l0,0c0-0.8-0.7-1.5-1.5-1.5h-19C4.7,19,4,19.7,4,20.5l0,0 C4,21.3,4.7,22,5.5,22H6z"/></svg></svg>