<svg width="199.87" height="200" viewBox="0 0 1023.3 1024" xmlns="http://www.w3.org/2000/svg">
  <path d="m512 1024c-212.11 0-402.29-131.66-475.43-329.14l109.72-51.2c51.2 160.91 197.48 263.31 373.03 263.31h21.943c182.86-7.314 336.46-146.28 365.71-321.83 29.258-182.86-58.514-358.4-234.06-431.54-51.2-21.943-102.4-36.571-160.91-36.571-124.34 0-241.37 58.514-314.51 160.91l-7.315 7.314 131.66 138.97-321.83-7.316v-321.83l102.4 109.71 14.628-14.63c95.086-117.03 241.37-190.17 394.97-190.17 73.143 0 146.29 14.629 212.11 43.886 212.12 95.085 329.14 321.83 292.57 555.88-36.572 226.74-226.74 402.29-460.8 424.23z" fill="#4b81fc"/>
</svg>
